<svg width="52" height="46" viewBox="0 0 52 46" fill="none" xmlns="http://www.w3.org/2000/svg">
<path fill-rule="evenodd" clip-rule="evenodd" d="M48.0859 2.14844H2.91406V27.9297H48.0859V2.14844ZM1 0V30.0781H50V0H1Z" fill="#2F2D23"/>
<path fill-rule="evenodd" clip-rule="evenodd" d="M50 22.3438H1V20.1953H50V22.3438Z" fill="#2F2D23"/>
<path fill-rule="evenodd" clip-rule="evenodd" d="M39.0237 30.0781L39.0237 21.9141L40.9377 21.9141L40.9377 30.0781L39.0237 30.0781Z" fill="#2F2D23"/>
<path d="M1.88 44C1.68267 44 1.48533 44 1.288 44C1.09067 44 0.890667 44 0.688 44C0.661333 44 0.64 43.992 0.624 43.976C0.608 43.96 0.6 43.9387 0.6 43.912C0.6 43.4853 0.6 43.0747 0.6 42.68C0.6 42.28 0.6 41.8853 0.6 41.496C0.6 41.1013 0.6 40.704 0.6 40.304C0.6 39.904 0.6 39.4933 0.6 39.072H1.976L1.88 39.312C1.88 39.4667 1.88 39.608 1.88 39.736C1.88 39.864 1.88 39.9973 1.88 40.136C1.88 40.472 1.88 40.8053 1.88 41.136C1.88 41.4667 1.88 41.8027 1.88 42.144C1.88 42.4853 1.88 42.8427 1.88 43.216C1.88 43.36 1.88 43.4987 1.88 43.632C1.88 43.7653 1.88 43.888 1.88 44ZM0.24 38.4C0.602667 38.4 0.986667 38.4 1.392 38.4C1.80267 38.4 2.168 38.4 2.488 38.4C2.76 38.4 3 38.4267 3.208 38.48C3.416 38.5333 3.592 38.6107 3.736 38.712C3.88533 38.808 4.00533 38.928 4.096 39.072C4.18667 39.2107 4.25333 39.3707 4.296 39.552C4.33867 39.728 4.36 39.9227 4.36 40.136V40.616C4.36 40.888 4.32533 41.1333 4.256 41.352C4.192 41.5653 4.08533 41.7467 3.936 41.896C3.792 42.0453 3.6 42.16 3.36 42.24C3.12 42.32 2.82933 42.36 2.488 42.36C2.36533 42.36 2.24 42.36 2.112 42.36C1.984 42.36 1.856 42.36 1.728 42.36L1.64 42.392V41.28C1.8 41.28 1.95467 41.28 2.104 41.28C2.25867 41.28 2.38667 41.28 2.488 41.28C2.58933 41.28 2.67733 41.2693 2.752 41.248C2.82667 41.2267 2.888 41.1947 2.936 41.152C2.984 41.104 3.01867 41.0427 3.04 40.968C3.06667 40.888 3.08 40.7893 3.08 40.672V40.08C3.08 39.9627 3.06933 39.8667 3.048 39.792C3.02667 39.712 2.992 39.648 2.944 39.6C2.896 39.552 2.83467 39.52 2.76 39.504C2.69067 39.4827 2.60267 39.472 2.496 39.472C2.26133 39.472 2.02133 39.472 1.776 39.472C1.53067 39.472 1.28533 39.472 1.04 39.472C0.794667 39.472 0.557333 39.472 0.328 39.472C0.301333 39.472 0.28 39.464 0.264 39.448C0.248 39.432 0.24 39.4107 0.24 39.384C0.24 39.208 0.24 39.0453 0.24 38.896C0.24 38.7413 0.24 38.576 0.24 38.4ZM10.2049 41.456C10.3382 41.6907 10.4582 41.904 10.5649 42.096C10.6769 42.288 10.7969 42.5013 10.9249 42.736C10.9675 42.8053 11.0049 42.8533 11.0369 42.88C11.0742 42.9067 11.1195 42.92 11.1729 42.92C11.1942 42.92 11.2102 42.92 11.2209 42.92C11.2369 42.92 11.2555 42.92 11.2769 42.92H11.4369C11.4369 43.1013 11.4369 43.2667 11.4369 43.416C11.4369 43.5653 11.4369 43.7307 11.4369 43.912C11.4369 43.9387 11.4289 43.96 11.4129 43.976C11.3969 43.992 11.3755 44 11.3489 44C11.3115 44 11.2582 44 11.1889 44C11.1249 44 11.0662 44 11.0129 44C10.8209 44 10.6609 43.9867 10.5329 43.96C10.4049 43.9333 10.2955 43.8827 10.2049 43.808C10.1142 43.7333 10.0315 43.624 9.95688 43.48C9.82354 43.2187 9.69021 42.9573 9.55687 42.696C9.42888 42.4347 9.29554 42.1733 9.15687 41.912L10.2049 41.456ZM7.19687 38.4C7.55954 38.4 7.92487 38.4 8.29287 38.4C8.66087 38.4 9.02621 38.4 9.38888 38.4C9.72487 38.4 10.0102 38.44 10.2449 38.52C10.4795 38.5947 10.6689 38.7067 10.8129 38.856C10.9622 39.0053 11.0689 39.184 11.1329 39.392C11.2022 39.5947 11.2369 39.824 11.2369 40.08V40.552C11.2369 40.7973 11.1995 41.0187 11.1249 41.216C11.0502 41.4133 10.9409 41.5813 10.7969 41.72C10.6529 41.8533 10.4795 41.9573 10.2769 42.032C10.0742 42.1013 9.84487 42.136 9.58888 42.136C9.43954 42.136 9.28754 42.136 9.13287 42.136C8.98354 42.136 8.83421 42.136 8.68487 42.136L8.59687 42.176V41.096C8.73554 41.096 8.87421 41.096 9.01287 41.096C9.15687 41.096 9.29821 41.096 9.43687 41.096C9.56487 41.096 9.66887 41.0773 9.74887 41.04C9.83421 41.0027 9.89554 40.944 9.93287 40.864C9.97554 40.784 9.99688 40.6853 9.99688 40.568V40.008C9.99688 39.9173 9.98621 39.84 9.96487 39.776C9.94354 39.712 9.91154 39.6587 9.86888 39.616C9.82621 39.5733 9.76754 39.5413 9.69287 39.52C9.62354 39.4933 9.53821 39.48 9.43687 39.48C9.20221 39.48 8.96221 39.48 8.71687 39.48C8.47687 39.48 8.23687 39.48 7.99687 39.48C7.76221 39.48 7.52487 39.48 7.28487 39.48C7.25821 39.48 7.23687 39.472 7.22087 39.456C7.20487 39.44 7.19687 39.4187 7.19687 39.392C7.19687 39.216 7.19687 39.0507 7.19687 38.896C7.19687 38.7413 7.19687 38.576 7.19687 38.4ZM8.79687 44C8.59954 44 8.40754 44 8.22087 44C8.03954 44 7.84754 44 7.64487 44C7.61821 44 7.59687 43.992 7.58087 43.976C7.56487 43.96 7.55687 43.9387 7.55687 43.912C7.55687 43.4853 7.55687 43.0747 7.55687 42.68C7.55687 42.28 7.55687 41.8853 7.55687 41.496C7.55687 41.1013 7.55687 40.704 7.55687 40.304C7.55687 39.904 7.55687 39.4933 7.55687 39.072H8.89287L8.79687 39.312C8.79687 39.4667 8.79687 39.6187 8.79687 39.768C8.79687 39.9173 8.79687 40.0613 8.79687 40.2C8.79687 40.536 8.79687 40.864 8.79687 41.184C8.79687 41.504 8.79687 41.8293 8.79687 42.16C8.79687 42.4907 8.79687 42.8427 8.79687 43.216C8.79687 43.36 8.79687 43.4987 8.79687 43.632C8.79687 43.7653 8.79687 43.888 8.79687 44ZM16.4356 38.24C16.841 38.24 17.2063 38.3253 17.5316 38.496C17.857 38.6667 18.1156 38.92 18.3076 39.256C18.4996 39.5867 18.5956 40 18.5956 40.496V42C18.5956 42.4533 18.5023 42.8427 18.3156 43.168C18.129 43.488 17.873 43.7333 17.5476 43.904C17.2276 44.0747 16.857 44.16 16.4356 44.16C16.0303 44.16 15.6623 44.0747 15.3316 43.904C15.0063 43.7333 14.7476 43.488 14.5556 43.168C14.369 42.8427 14.2756 42.4533 14.2756 42V40.496C14.2756 40 14.377 39.5867 14.5796 39.256C14.7823 38.92 15.049 38.6667 15.3796 38.496C15.7103 38.3253 16.0623 38.24 16.4356 38.24ZM15.4756 41.904C15.4756 42.2133 15.5103 42.4373 15.5796 42.576C15.6543 42.7147 15.7263 42.8133 15.7956 42.872C15.865 42.9253 15.9583 42.9707 16.0756 43.008C16.193 43.0453 16.3263 43.064 16.4756 43.064C16.657 43.064 16.8143 43.0213 16.9476 42.936C17.0863 42.8507 17.1956 42.7227 17.2756 42.552C17.3556 42.376 17.3956 42.16 17.3956 41.904V40.4C17.3956 40.24 17.3876 40.1067 17.3716 40C17.3556 39.8933 17.329 39.8053 17.2916 39.736C17.2543 39.6613 17.2063 39.5973 17.1476 39.544C17.073 39.4693 16.9796 39.4133 16.8676 39.376C16.7556 39.3387 16.617 39.32 16.4516 39.32C16.233 39.32 16.0516 39.3653 15.9076 39.456C15.7636 39.5413 15.6543 39.664 15.5796 39.824C15.5103 39.984 15.4756 40.176 15.4756 40.4V41.904ZM22.5246 42.96C22.6579 42.96 22.7646 42.9493 22.8446 42.928C22.9246 42.9013 22.9912 42.8613 23.0446 42.808C23.0819 42.7707 23.1112 42.7253 23.1326 42.672C23.1539 42.6133 23.1699 42.544 23.1806 42.464C23.1912 42.384 23.1966 42.288 23.1966 42.176C23.1966 41.936 23.1966 41.7013 23.1966 41.472C23.1966 41.2427 23.1966 41.0107 23.1966 40.776C23.1966 40.536 23.1966 40.2933 23.1966 40.048C23.1966 39.7973 23.1966 39.536 23.1966 39.264L23.3726 39.648L23.0446 39.28L23.4206 39.48C23.2552 39.48 23.1059 39.48 22.9726 39.48C22.8446 39.48 22.7192 39.48 22.5966 39.48C22.4739 39.48 22.3459 39.48 22.2126 39.48C22.0846 39.48 21.9379 39.48 21.7726 39.48C21.7566 39.48 21.7406 39.4773 21.7246 39.472C21.7139 39.4613 21.7032 39.4507 21.6926 39.44C21.6872 39.424 21.6846 39.408 21.6846 39.392C21.6846 39.216 21.6846 39.0507 21.6846 38.896C21.6846 38.7413 21.6846 38.576 21.6846 38.4C21.9352 38.4 22.1672 38.4 22.3806 38.4C22.5939 38.4 22.7992 38.4 22.9966 38.4C23.1939 38.4 23.3992 38.4 23.6126 38.4C23.8259 38.4 24.0579 38.4 24.3086 38.4C24.3246 38.4 24.3379 38.4053 24.3486 38.416C24.3646 38.4213 24.3752 38.432 24.3806 38.448C24.3912 38.4587 24.3966 38.472 24.3966 38.488C24.3966 38.7813 24.3966 39.0773 24.3966 39.376C24.3966 39.6747 24.3966 39.9787 24.3966 40.288C24.3966 40.5973 24.3966 40.9147 24.3966 41.24C24.3966 41.5653 24.3966 41.9013 24.3966 42.248C24.3966 42.552 24.3592 42.824 24.2846 43.064C24.2099 43.2987 24.0979 43.4987 23.9486 43.664C23.7992 43.824 23.6072 43.9467 23.3726 44.032C23.1432 44.1173 22.8686 44.16 22.5486 44.16C22.3406 44.16 22.1486 44.1467 21.9726 44.12C21.8019 44.0933 21.6606 44.0587 21.5486 44.016C21.4366 43.9787 21.3592 43.9413 21.3166 43.904C21.3059 43.8933 21.2979 43.8827 21.2926 43.872C21.2872 43.8613 21.2819 43.848 21.2766 43.832C21.2766 43.816 21.2766 43.8 21.2766 43.784C21.2766 43.6187 21.2766 43.4453 21.2766 43.264C21.2766 43.0827 21.2766 42.9013 21.2766 42.72H21.4366C21.5699 42.7733 21.6926 42.8187 21.8046 42.856C21.9166 42.8933 22.0312 42.92 22.1486 42.936C22.2659 42.952 22.3912 42.96 22.5246 42.96ZM27.3566 38.4H31.0286C31.0446 38.4 31.0579 38.4053 31.0686 38.416C31.0846 38.4213 31.0952 38.432 31.1006 38.448C31.1112 38.4587 31.1166 38.472 31.1166 38.488C31.1166 38.6693 31.1166 38.8347 31.1166 38.984C31.1166 39.128 31.1166 39.2933 31.1166 39.48H27.4446C27.4286 39.48 27.4126 39.4773 27.3966 39.472C27.3859 39.4613 27.3752 39.4507 27.3646 39.44C27.3592 39.424 27.3566 39.408 27.3566 39.392C27.3566 39.2053 27.3566 39.04 27.3566 38.896C27.3566 38.7467 27.3566 38.5813 27.3566 38.4ZM28.5246 40.672H30.5486C30.5646 40.672 30.5779 40.6773 30.5886 40.688C30.6046 40.6933 30.6152 40.704 30.6206 40.72C30.6312 40.7307 30.6366 40.744 30.6366 40.76C30.6366 40.8827 30.6366 40.9973 30.6366 41.104C30.6366 41.2107 30.6366 41.312 30.6366 41.408C30.6366 41.504 30.6366 41.6053 30.6366 41.712H28.5246V40.672ZM27.8046 44C27.7939 44 27.7832 43.9973 27.7726 43.992C27.7619 43.9867 27.7512 43.9813 27.7406 43.976C27.7352 43.9653 27.7299 43.9547 27.7246 43.944C27.7192 43.9333 27.7166 43.9227 27.7166 43.912C27.7166 43.8053 27.7166 43.624 27.7166 43.368C27.7166 43.1067 27.7166 42.8 27.7166 42.448C27.7166 42.0907 27.7166 41.7147 27.7166 41.32C27.7166 40.92 27.7166 40.5253 27.7166 40.136C27.7166 39.7467 27.7166 39.392 27.7166 39.072H29.0606L28.9966 39.264C28.9966 39.392 28.9966 39.5227 28.9966 39.656C28.9966 39.784 28.9966 39.912 28.9966 40.04C28.9966 40.2747 28.9966 40.5147 28.9966 40.76C28.9966 41 28.9966 41.2427 28.9966 41.488C28.9966 41.728 28.9966 41.968 28.9966 42.208C28.9966 42.448 28.9966 42.6853 28.9966 42.92H31.0286C31.0552 42.92 31.0766 42.928 31.0926 42.944C31.1086 42.96 31.1166 42.9813 31.1166 43.008C31.1166 43.184 31.1166 43.3493 31.1166 43.504C31.1166 43.6587 31.1166 43.824 31.1166 44H27.8046ZM36.1848 44.16C35.7901 44.16 35.4435 44.1093 35.1448 44.008C34.8515 43.912 34.6061 43.7707 34.4088 43.584C34.2168 43.3973 34.0728 43.168 33.9768 42.896C33.8808 42.6187 33.8328 42.304 33.8328 41.952V40.36C33.8328 40.0453 33.8808 39.76 33.9768 39.504C34.0781 39.2427 34.2248 39.0187 34.4168 38.832C34.6088 38.64 34.8435 38.4933 35.1208 38.392C35.4035 38.2907 35.7235 38.24 36.0808 38.24C36.3528 38.24 36.5981 38.2667 36.8168 38.32C37.0355 38.368 37.2221 38.432 37.3768 38.512C37.5315 38.5867 37.6488 38.6667 37.7288 38.752C37.7448 38.7627 37.7555 38.776 37.7608 38.792C37.7661 38.808 37.7688 38.824 37.7688 38.84C37.7741 38.856 37.7768 38.8747 37.7768 38.896C37.7768 39.0933 37.7768 39.3253 37.7768 39.592C37.7768 39.8533 37.7768 40.1013 37.7768 40.336C37.6061 40.336 37.4328 40.336 37.2568 40.336C37.0861 40.336 36.9155 40.336 36.7448 40.336C36.7181 40.336 36.6968 40.328 36.6808 40.312C36.6648 40.296 36.6568 40.2747 36.6568 40.248C36.6568 40.1627 36.6568 40.0747 36.6568 39.984C36.6568 39.8933 36.6568 39.7893 36.6568 39.672C36.6568 39.5547 36.6568 39.4133 36.6568 39.248L36.8808 39.576C36.7581 39.5013 36.6301 39.4507 36.4968 39.424C36.3688 39.3973 36.2221 39.384 36.0568 39.384C35.8648 39.384 35.6968 39.4187 35.5528 39.488C35.4141 39.5573 35.3048 39.6667 35.2248 39.816C35.1501 39.96 35.1128 40.1493 35.1128 40.384V41.856C35.1128 42.0853 35.1341 42.2773 35.1768 42.432C35.2195 42.5867 35.2861 42.7093 35.3768 42.8C35.4675 42.8907 35.5821 42.9547 35.7208 42.992C35.8648 43.024 36.0221 43.04 36.1928 43.04C36.4808 43.04 36.7368 43.0107 36.9608 42.952C37.1848 42.888 37.4221 42.7787 37.6728 42.624H37.8328C37.8328 42.7093 37.8328 42.792 37.8328 42.872C37.8328 42.952 37.8328 43.032 37.8328 43.112C37.8328 43.1867 37.8328 43.2667 37.8328 43.352C37.8328 43.432 37.8328 43.5173 37.8328 43.608C37.8328 43.6347 37.8275 43.6587 37.8168 43.68C37.8115 43.7013 37.8008 43.72 37.7848 43.736C37.7155 43.8053 37.6035 43.872 37.4488 43.936C37.2941 44 37.1075 44.0533 36.8888 44.096C36.6755 44.1387 36.4408 44.16 36.1848 44.16ZM40.5475 38.4H44.4595C44.4862 38.4 44.5075 38.408 44.5235 38.424C44.5395 38.44 44.5475 38.4613 44.5475 38.488C44.5475 38.6693 44.5475 38.8347 44.5475 38.984C44.5475 39.128 44.5475 39.2933 44.5475 39.48H40.6355C40.6195 39.48 40.6035 39.4773 40.5875 39.472C40.5768 39.4613 40.5662 39.4507 40.5555 39.44C40.5502 39.424 40.5475 39.408 40.5475 39.392C40.5475 39.2053 40.5475 39.04 40.5475 38.896C40.5475 38.7467 40.5475 38.5813 40.5475 38.4ZM43.1875 44C42.9902 44 42.7928 44 42.5955 44C42.3982 44 42.1982 44 41.9955 44C41.9688 44 41.9475 43.992 41.9315 43.976C41.9155 43.96 41.9075 43.9387 41.9075 43.912C41.9075 43.4853 41.9075 43.072 41.9075 42.672C41.9075 42.2667 41.9075 41.864 41.9075 41.464C41.9075 41.064 41.9075 40.6613 41.9075 40.256C41.9075 39.8507 41.9075 39.4373 41.9075 39.016H43.2835L43.1875 39.256C43.1875 39.3573 43.1875 39.464 43.1875 39.576C43.1875 39.688 43.1875 39.7973 43.1875 39.904C43.1875 40.0053 43.1875 40.104 43.1875 40.2C43.1875 40.536 43.1875 40.864 43.1875 41.184C43.1875 41.504 43.1875 41.8293 43.1875 42.16C43.1875 42.4907 43.1875 42.8427 43.1875 43.216C43.1875 43.36 43.1875 43.4987 43.1875 43.632C43.1875 43.7653 43.1875 43.888 43.1875 44ZM49.4382 38.24C49.8169 38.24 50.1369 38.2853 50.3982 38.376C50.6649 38.4667 50.8595 38.5733 50.9822 38.696C51.0035 38.7173 51.0169 38.7387 51.0222 38.76C51.0275 38.7813 51.0302 38.808 51.0302 38.84C51.0302 38.9413 51.0302 39.0587 51.0302 39.192C51.0302 39.32 51.0302 39.4507 51.0302 39.584C51.0302 39.712 51.0302 39.8373 51.0302 39.96C50.8595 39.96 50.6835 39.96 50.5022 39.96C50.3262 39.96 50.1529 39.96 49.9822 39.96C49.9555 39.96 49.9342 39.952 49.9182 39.936C49.9022 39.92 49.8942 39.8987 49.8942 39.872C49.8942 39.8293 49.8942 39.784 49.8942 39.736C49.8942 39.688 49.8942 39.6373 49.8942 39.584C49.8942 39.5253 49.8942 39.464 49.8942 39.4C49.8942 39.3307 49.8942 39.2533 49.8942 39.168L50.1182 39.432C49.9955 39.3893 49.8835 39.36 49.7822 39.344C49.6809 39.328 49.5662 39.32 49.4382 39.32C49.2942 39.32 49.1689 39.3307 49.0622 39.352C48.9555 39.368 48.8649 39.3973 48.7902 39.44C48.7209 39.4827 48.6675 39.5387 48.6302 39.608C48.5929 39.672 48.5742 39.752 48.5742 39.848V40.016C48.5742 40.112 48.5875 40.192 48.6142 40.256C48.6462 40.32 48.7049 40.376 48.7902 40.424C48.8809 40.472 49.0142 40.5227 49.1902 40.576L49.9502 40.808C50.2009 40.8827 50.4089 40.9653 50.5742 41.056C50.7395 41.1467 50.8702 41.2507 50.9662 41.368C51.0622 41.48 51.1289 41.6107 51.1662 41.76C51.2089 41.904 51.2302 42.0693 51.2302 42.256V42.64C51.2302 42.9547 51.1449 43.2267 50.9742 43.456C50.8035 43.6853 50.5582 43.8613 50.2382 43.984C49.9235 44.1013 49.5422 44.16 49.0942 44.16C48.8382 44.16 48.5955 44.144 48.3662 44.112C48.1422 44.08 47.9449 44.032 47.7742 43.968C47.6089 43.904 47.4809 43.8293 47.3902 43.744C47.3742 43.728 47.3609 43.712 47.3502 43.696C47.3449 43.6747 47.3422 43.6373 47.3422 43.584C47.3422 43.4827 47.3422 43.3813 47.3422 43.28C47.3422 43.1787 47.3422 43.072 47.3422 42.96C47.3422 42.848 47.3422 42.7307 47.3422 42.608H47.5022C47.7422 42.7627 47.9929 42.88 48.2542 42.96C48.5155 43.0347 48.8249 43.072 49.1822 43.072C49.4969 43.072 49.7209 43.0267 49.8542 42.936C49.9875 42.84 50.0542 42.736 50.0542 42.624V42.328C50.0542 42.2533 50.0409 42.1893 50.0142 42.136C49.9929 42.0827 49.9395 42.032 49.8542 41.984C49.7742 41.9307 49.6409 41.8773 49.4542 41.824L48.7022 41.592C48.4355 41.512 48.2169 41.4187 48.0462 41.312C47.8755 41.2053 47.7422 41.0933 47.6462 40.976C47.5555 40.8533 47.4915 40.7253 47.4542 40.592C47.4169 40.4533 47.3982 40.312 47.3982 40.168V39.76C47.3982 39.5413 47.4435 39.3413 47.5342 39.16C47.6302 38.9733 47.7662 38.8107 47.9422 38.672C48.1235 38.5333 48.3395 38.4267 48.5902 38.352C48.8409 38.2773 49.1235 38.24 49.4382 38.24Z" fill="#2F2D23"/>
</svg>
